HIERARCHY
ROOT reference
{
  OFFSET 0 0 0
  CHANNELS 6 Xposition Yposition Zposition Zrotation Xrotation Yrotation
  JOINT Hips
  {
    OFFSET 387.421 88.6843 214.036
    CHANNELS 3 Zrotation Xrotation Yrotation
    JOINT RightUpLeg
    {
      OFFSET -9.26407 -1.54033 -0.0169218
      CHANNELS 3 Zrotation Xrotation Yrotation
      JOINT RightLeg
      {
        OFFSET 0.0262756 -41.889 0.0389421
        CHANNELS 3 Zrotation Xrotation Yrotation
        JOINT RightFoot
        {
          OFFSET -0.025595 -42.7244 0.117519
          CHANNELS 3 Zrotation Xrotation Yrotation
          End Site
          {
            OFFSET 0 -7.69 17.5
          }
        }
      }
    }
    JOINT LeftUpLeg
    {
      OFFSET 9.28488 -1.63184 0.00456132
      CHANNELS 3 Zrotation Xrotation Yrotation
      JOINT LeftLeg
      {
        OFFSET -0.00133996 -41.8929 0.0117795
        CHANNELS 3 Zrotation Xrotation Yrotation
        JOINT LeftFoot
        {
          OFFSET 0.253805 -40.8902 0.809143
          CHANNELS 3 Zrotation Xrotation Yrotation
          End Site
          {
            OFFSET 0 -7.69 17.5
          }
        }
      }
    }
    JOINT Spine
    {
      OFFSET 0.04218 14.2944 0.0529257
      CHANNELS 3 Zrotation Xrotation Yrotation
      JOINT Spine1
      {
        OFFSET 0.022284 9.72228 0.00997239
        CHANNELS 3 Zrotation Xrotation Yrotation
        JOINT Spine2
        {
          OFFSET 0.0397412 10.1199 -0.0103674
          CHANNELS 3 Zrotation Xrotation Yrotation
          JOINT Spine3
          {
            OFFSET 0.0389473 9.71765 -0.00772733
            CHANNELS 3 Zrotation Xrotation Yrotation
            JOINT Neck
            {
              OFFSET 0.0437972 10.3765 0.0320322
              CHANNELS 3 Zrotation Xrotation Yrotation
              JOINT Head
              {
                OFFSET 0.0431994 9.46781 0.0291763
                CHANNELS 3 Zrotation Xrotation Yrotation
                End Site
                {
                  OFFSET 0 15.95 0
                }
              }
            }
            JOINT RightShoulder
            {
              OFFSET -3.17206 6.93005 0.0018626
              CHANNELS 3 Zrotation Xrotation Yrotation
              JOINT RightArm
              {
                OFFSET -12.781 0.0116363 0.0199633
                CHANNELS 3 Zrotation Xrotation Yrotation
                JOINT RightForeArm
                {
                  OFFSET -26.5135 -0.0113607 0.0486864
                  CHANNELS 3 Zrotation Xrotation Yrotation
                  JOINT RightHand
                  {
                    OFFSET -25.9857 -0.0984063 0.163753
                    CHANNELS 3 Zrotation Xrotation Yrotation
                    JOINT RightHandThumb1
                    {
                      OFFSET -2.48905 0.190105 3.12053
                      CHANNELS 3 Zrotation Xrotation Yrotation
                      JOINT RightHandThumb2
                      {
                        OFFSET -3.68274 0 0
                        CHANNELS 3 Zrotation Xrotation Yrotation
                        JOINT RightHandThumb3
                        {
                          OFFSET -2.55832 0 0
                          CHANNELS 3 Zrotation Xrotation Yrotation
                          End Site
                          {
                            OFFSET -2.194 0 0
                          }
                        }
                      }
                    }
                    JOINT RightInHandIndex
                    {
                      OFFSET -3.22368 0.508421 1.97842
                      CHANNELS 3 Zrotation Xrotation Yrotation
                      JOINT RightHandIndex1
                      {
                        OFFSET -5.21684 -0.091368 0.999158
                        CHANNELS 3 Zrotation Xrotation Yrotation
                        JOINT RightHandIndex2
                        {
                          OFFSET -3.61937 0 0
                          CHANNELS 3 Zrotation Xrotation Yrotation
                          JOINT RightHandIndex3
                          {
                            OFFSET -2.0521 0 0
                            CHANNELS 3 Zrotation Xrotation Yrotation
                            End Site
                            {
                              OFFSET -1.805 0 0
                            }
                          }
                        }
                      }
                    }
                    JOINT RightInHandMiddle
                    {
                      OFFSET -3.38211 0.517263 0.756737
                      CHANNELS 3 Zrotation Xrotation Yrotation
                      JOINT RightHandMiddle1
                      {
                        OFFSET -5.17411 -0.084 0.313895
                        CHANNELS 3 Zrotation Xrotation Yrotation
                        JOINT RightHandMiddle2
                        {
                          OFFSET -3.94947 0 0
                          CHANNELS 3 Zrotation Xrotation Yrotation
                          JOINT RightHandMiddle3
                          {
                            OFFSET -2.47579 0 0
                            CHANNELS 3 Zrotation Xrotation Yrotation
                            End Site
                            {
                              OFFSET -1.975 0 0
                            }
                          }
                        }
                      }
                    }
                    JOINT RightInHandRing
                    {
                      OFFSET -3.36516 0.537895 -0.128947
                      CHANNELS 3 Zrotation Xrotation Yrotation
                      JOINT RightHandRing1
                      {
                        OFFSET -4.63474 -0.022105 -0.478947
                        CHANNELS 3 Zrotation Xrotation Yrotation
                        JOINT RightHandRing2
                        {
                          OFFSET -3.44238 0 0
                          CHANNELS 3 Zrotation Xrotation Yrotation
                          JOINT RightHandRing3
                          {
                            OFFSET -2.3881 0 0
                            CHANNELS 3 Zrotation Xrotation Yrotation
                            End Site
                            {
                              OFFSET -1.857 0 0
                            }
                          }
                        }
                      }
                    }
                    JOINT RightInHandPinky
                    {
                      OFFSET -3.16105 0.469368 -1.20179
                      CHANNELS 3 Zrotation Xrotation Yrotation
                      JOINT RightHandPinky1
                      {
                        OFFSET -4.14105 -0.022105 -1.09053
                        CHANNELS 3 Zrotation Xrotation Yrotation
                        JOINT RightHandPinky2
                        {
                          OFFSET -2.75653 0 0
                          CHANNELS 3 Zrotation Xrotation Yrotation
                          JOINT RightHandPinky3
                          {
                            OFFSET -1.74189 0 0
                            CHANNELS 3 Zrotation Xrotation Yrotation
                            End Site
                            {
                              OFFSET -1.645 0 0
                            }
                          }
                        }
                      }
                    }
                  }
                }
              }
            }
            JOINT LeftShoulder
            {
              OFFSET 3.23848 6.90919 -0.0119143
              CHANNELS 3 Zrotation Xrotation Yrotation
              JOINT LeftArm
              {
                OFFSET 12.8241 -0.0554782 -0.0520121
                CHANNELS 3 Zrotation Xrotation Yrotation
                JOINT LeftForeArm
                {
                  OFFSET 26.4865 -0.0658343 -0.0244543
                  CHANNELS 3 Zrotation Xrotation Yrotation
                  JOINT LeftHand
                  {
                    OFFSET 25.985 -0.0475988 -0.0124738
                    CHANNELS 3 Zrotation Xrotation Yrotation
                    JOINT LeftHandThumb1
                    {
                      OFFSET 2.48905 0.190105 3.12053
                      CHANNELS 3 Zrotation Xrotation Yrotation
                      JOINT LeftHandThumb2
                      {
                        OFFSET 3.68274 0 0
                        CHANNELS 3 Zrotation Xrotation Yrotation
                        JOINT LeftHandThumb3
                        {
                          OFFSET 2.55832 0 0
                          CHANNELS 3 Zrotation Xrotation Yrotation
                          End Site
                          {
                            OFFSET 2.194 0 0
                          }
                        }
                      }
                    }
                    JOINT LeftInHandIndex
                    {
                      OFFSET 3.22368 0.508421 1.97842
                      CHANNELS 3 Zrotation Xrotation Yrotation
                      JOINT LeftHandIndex1
                      {
                        OFFSET 5.21684 -0.091368 0.999158
                        CHANNELS 3 Zrotation Xrotation Yrotation
                        JOINT LeftHandIndex2
                        {
                          OFFSET 3.61937 0 0
                          CHANNELS 3 Zrotation Xrotation Yrotation
                          JOINT LeftHandIndex3
                          {
                            OFFSET 2.0521 0 0
                            CHANNELS 3 Zrotation Xrotation Yrotation
                            End Site
                            {
                              OFFSET 1.805 0 0
                            }
                          }
                        }
                      }
                    }
                    JOINT LeftInHandMiddle
                    {
                      OFFSET 3.38211 0.517263 0.756737
                      CHANNELS 3 Zrotation Xrotation Yrotation
                      JOINT LeftHandMiddle1
                      {
                        OFFSET 5.17411 -0.084 0.313895
                        CHANNELS 3 Zrotation Xrotation Yrotation
                        JOINT LeftHandMiddle2
                        {
                          OFFSET 3.94947 0 0
                          CHANNELS 3 Zrotation Xrotation Yrotation
                          JOINT LeftHandMiddle3
                          {
                            OFFSET 2.47579 0 0
                            CHANNELS 3 Zrotation Xrotation Yrotation
                            End Site
                            {
                              OFFSET 1.975 0 0
                            }
                          }
                        }
                      }
                    }
                    JOINT LeftInHandRing
                    {
                      OFFSET 3.36516 0.537895 -0.128947
                      CHANNELS 3 Zrotation Xrotation Yrotation
                      JOINT LeftHandRing1
                      {
                        OFFSET 4.63474 -0.022105 -0.478947
                        CHANNELS 3 Zrotation Xrotation Yrotation
                        JOINT LeftHandRing2
                        {
                          OFFSET 3.44238 0 0
                          CHANNELS 3 Zrotation Xrotation Yrotation
                          JOINT LeftHandRing3
                          {
                            OFFSET 2.3881 0 0
                            CHANNELS 3 Zrotation Xrotation Yrotation
                            End Site
                            {
                              OFFSET 1.857 0 0
                            }
                          }
                        }
                      }
                    }
                    JOINT LeftInHandPinky
                    {
                      OFFSET 3.16105 0.469368 -1.20179
                      CHANNELS 3 Zrotation Xrotation Yrotation
                      JOINT LeftHandPinky1
                      {
                        OFFSET 4.14105 -0.022105 -1.09053
                        CHANNELS 3 Zrotation Xrotation Yrotation
                        JOINT LeftHandPinky2
                        {
                          OFFSET 2.75653 0 0
                          CHANNELS 3 Zrotation Xrotation Yrotation
                          JOINT LeftHandPinky3
                          {
                            OFFSET 1.74189 0 0
                            CHANNELS 3 Zrotation Xrotation Yrotation
                            End Site
                            {
                              OFFSET 1.645 0 0
                            }
                          }
                        }
                      }
                    }
                  }
                }
              }
            }
          }
        }
      }
    }
  }
}
MOTION
Frames: 2
Frame Time: 0.00833333
7.500000000000000000e+02 0.000000000000000000e+00 0.000000000000000000e+00 0.000000000000000000e+00 0.000000000000000000e+00 0.000000000000000000e+00 5.787396115318724776e-01 1.456121943748850889e+01 2.519079039052805413e+01 -9.747058273180277510e+00 -1.839824058768523685e+01 -2.073281830119151081e+01 3.534172757717367830e+00 1.444420656351702270e+01 -5.441361043916939977e+00 -4.462554258746791014e+00 -4.425277639116851347e-01 -7.111423904149024366e+00 -4.165094873558783384e+00 -2.112789336663056261e+01 -1.192430330664705096e+01 1.387634374206574428e+01 -1.340272585802052552e+00 -1.182107535541712373e+01 -5.417749908982323781e+00 9.129079720451485969e+00 -1.309276278003313365e+01 1.919597442258090370e+00 2.789176458535163494e+00 -4.762719468173518322e+00 2.761041696434409221e-01 1.228621983377866211e+00 -1.307733627476953542e+00 6.397662597484085056e-01 2.182873689236429993e+00 -2.174034051187689442e+00 1.888141262945832177e-01 -3.085482832691052169e-01 -1.918661765756127791e-01 -1.383804415679025013e+00 5.853268782110838675e-01 7.961564655464891116e-01 3.234157851137329232e+00 -1.162374959954641263e+01 -6.265200502310060315e+00 2.345943824593869298e+00 -4.617167767056676198e+00 -5.112389550672249428e+00 2.095033263403918511e+01 1.921211975421800133e+01 9.339693855444728854e+00 -1.444533274927709776e+01 -4.917772265294644995e+01 -3.807209129404632364e+01 -3.802812258888412789e+00 -8.652482608706147715e+00 -4.043033929767900325e+00 0.000000000000000000e+00 0.000000000000000000e+00 0.000000000000000000e+00 -5.900280869149998768e-15 1.086099119048958166e-15 0.000000000000000000e+00 -4.534707509610142116e-15 3.011793394534371455e-17 0.000000000000000000e+00 -2.462848825864348967e-15 -7.649185709137812441e-16 2.838397561367879464e-15 0.000000000000000000e+00 0.000000000000000000e+00 0.000000000000000000e+00 0.000000000000000000e+00 5.369218902182955132e-15 9.328651399350986364e-15 0.000000000000000000e+00 -9.637712973989656563e-15 7.550647705749328871e-15 -2.462848825864348967e-15 -7.649185709137812441e-16 2.838397561367879464e-15 0.000000000000000000e+00 1.122629515210973897e-15 1.917216567724830730e-16 0.000000000000000000e+00 5.202960179640616675e-15 1.136387726207734536e-15 0.000000000000000000e+00 4.033880137180914008e-15 -3.133950864160582001e-15 -2.462848825864348967e-15 -7.649185709137812441e-16 2.838397561367879464e-15 0.000000000000000000e+00 0.000000000000000000e+00 0.000000000000000000e+00 0.000000000000000000e+00 1.669565625869132422e-14 7.462277188066157144e-14 0.000000000000000000e+00 -7.746995147795078497e-15 4.008288966110048469e-15 -2.462848825864348967e-15 -7.649185709137812441e-16 2.838397561367879464e-15 0.000000000000000000e+00 0.000000000000000000e+00 0.000000000000000000e+00 0.000000000000000000e+00 7.316602667620997578e-15 2.477547079584849416e-14 0.000000000000000000e+00 2.195819730681282269e-15 2.153129299998252348e-15 4.053923612485158756e+00 5.188009603023661320e+00 6.916117175710477127e+00 1.467695869816417265e+01 2.635279974842978490e+00 6.759683572895455406e+00 2.112817357747297820e+01 -1.478361552760019570e+01 7.427126309017556594e+01 -4.443073655149767376e+00 1.917800809273894291e+00 1.156728045105698754e+01 0.000000000000000000e+00 0.000000000000000000e+00 0.000000000000000000e+00 1.676774684610062479e-15 5.643209860938567450e-15 0.000000000000000000e+00 -6.099393757961057261e-17 4.315023386236009982e-16 0.000000000000000000e+00 -3.656828164114419460e-15 -8.811021754791869130e-15 1.932226444163386279e-15 0.000000000000000000e+00 0.000000000000000000e+00 0.000000000000000000e+00 0.000000000000000000e+00 1.925036866584467745e-15 -2.002032652349024949e-14 0.000000000000000000e+00 -1.609310063018043874e-15 -2.884893607781965676e-15 -3.656828164114419460e-15 -8.811021754791869130e-15 1.932226444163386279e-15 0.000000000000000000e+00 9.719051307793435144e-15 -1.127682204417188274e-14 0.000000000000000000e+00 -5.815957672908812934e-15 -1.353431903454562832e-14 0.000000000000000000e+00 -5.714319205931467313e-16 -1.205051264584090025e-14 -3.656828164114419460e-15 -8.811021754791869130e-15 1.932226444163386279e-15 0.000000000000000000e+00 0.000000000000000000e+00 0.000000000000000000e+00 0.000000000000000000e+00 -5.034993364541783420e-15 -8.081824354749349753e-15 0.000000000000000000e+00 -1.333431996143907173e-16 -4.084636259360056242e-15 -3.656828164114419460e-15 -8.811021754791869130e-15 1.932226444163386279e-15 0.000000000000000000e+00 0.000000000000000000e+00 0.000000000000000000e+00 0.000000000000000000e+00 1.556500001669114649e-15 9.965844674193735825e-16 0.000000000000000000e+00 2.802685806764554993e-15 1.926240154409752468e-15
7.500000000000000000e+02 0.000000000000000000e+00 0.000000000000000000e+00 0.000000000000000000e+00 0.000000000000000000e+00 0.000000000000000000e+00 5.887959979226544682e-01 1.463448291931668876e+01 2.523987919702154770e+01 -9.727726208916161355e+00 -1.850830688261481072e+01 -2.080269241911401679e+01 3.524228548861040089e+00 1.450251240543894760e+01 -5.450937516491102031e+00 -4.491416807535059341e+00 -4.032868942498056830e-01 -7.123782184217335001e+00 -4.180776012553186760e+00 -2.125798252696601764e+01 -1.201091835952809106e+01 1.389300782097740772e+01 -1.258728261077156851e+00 -1.181301874622819170e+01 -5.386921712666261186e+00 9.152274034592503327e+00 -1.313041686954080944e+01 1.997450390993971592e+00 2.746555209116191332e+00 -4.915551500485187297e+00 2.913980182234230942e-01 1.217569028982771195e+00 -1.345737828703551742e+00 6.674879518270996348e-01 2.166020107245781201e+00 -2.238863651747354577e+00 1.838888950999965355e-01 -3.075413986537735567e-01 -1.844793571481667116e-01 -1.407900568908787564e+00 5.705428096922917636e-01 8.997180921537033527e-01 3.152340459717736909e+00 -1.160036054016452134e+01 -6.225310192236539031e+00 2.355993367482626333e+00 -4.545857631276764899e+00 -5.270206064396655066e+00 2.136335090965312489e+01 1.912168632640296195e+01 8.993448959852768709e+00 -1.355266426460560858e+01 -4.922768304515095394e+01 -3.669753152709153454e+01 -3.746087420756524455e+00 -8.579120077289779545e+00 -3.782237426405559155e+00 0.000000000000000000e+00 0.000000000000000000e+00 0.000000000000000000e+00 -5.888894894300432661e-15 1.043914231181831437e-15 0.000000000000000000e+00 -4.273166723759077396e-15 2.015835110081136245e-16 0.000000000000000000e+00 -2.633776829189032996e-15 -8.092464049961682480e-16 2.718700643175496923e-15 0.000000000000000000e+00 0.000000000000000000e+00 0.000000000000000000e+00 0.000000000000000000e+00 5.637592013740113994e-15 1.057905660199698737e-14 0.000000000000000000e+00 -9.387833746069141073e-15 7.362240927502605339e-15 -2.633776829189032996e-15 -8.092464049961682480e-16 2.718700643175496923e-15 0.000000000000000000e+00 1.203887573687808541e-15 6.642074510817567404e-16 0.000000000000000000e+00 5.389726519179534126e-15 1.828769066400611202e-15 0.000000000000000000e+00 3.806067922140279345e-15 -3.083606243665345082e-15 -2.633776829189032996e-15 -8.092464049961682480e-16 2.718700643175496923e-15 0.000000000000000000e+00 0.000000000000000000e+00 0.000000000000000000e+00 0.000000000000000000e+00 1.678892363904486142e-14 7.498099544131932591e-14 0.000000000000000000e+00 -7.325750970164802699e-15 3.765375961631998200e-15 -2.633776829189032996e-15 -8.092464049961682480e-16 2.718700643175496923e-15 0.000000000000000000e+00 0.000000000000000000e+00 0.000000000000000000e+00 0.000000000000000000e+00 7.704274304211644823e-15 2.540866468475470423e-14 0.000000000000000000e+00 2.314448533707810178e-15 2.172088253897063669e-15 4.012594248256265317e+00 5.235906669224282162e+00 6.879483193805075558e+00 1.499634100317997998e+01 2.718992421822478356e+00 6.515631281093061666e+00 2.162802363222974122e+01 -1.394923659628545920e+01 7.494314021657625347e+01 -4.554304784033895714e+00 1.953205254963562343e+00 1.161466472393716920e+01 0.000000000000000000e+00 0.000000000000000000e+00 0.000000000000000000e+00 1.660656601573159306e-15 5.577921959916585224e-15 0.000000000000000000e+00 -4.890896308953653051e-16 4.591719849162001562e-16 0.000000000000000000e+00 -3.553768793468724328e-15 -8.608734750961400263e-15 1.933587708184924091e-15 0.000000000000000000e+00 0.000000000000000000e+00 0.000000000000000000e+00 0.000000000000000000e+00 2.097623019279192353e-15 -1.979577971461884296e-14 0.000000000000000000e+00 -1.374969066372923961e-15 -2.858881239434278456e-15 -3.553768793468724328e-15 -8.608734750961400263e-15 1.933587708184924091e-15 0.000000000000000000e+00 9.701244763338456759e-15 -1.127567998073484784e-14 0.000000000000000000e+00 -5.473386632219154272e-15 -1.358362372349604985e-14 0.000000000000000000e+00 -6.055110849884590182e-16 -1.174829103274893931e-14 -3.553768793468724328e-15 -8.608734750961400263e-15 1.933587708184924091e-15 0.000000000000000000e+00 0.000000000000000000e+00 0.000000000000000000e+00 0.000000000000000000e+00 -4.880549371107649961e-15 -8.327672748879227630e-15 0.000000000000000000e+00 7.944097477660069255e-17 -3.845688497275475447e-15 -3.553768793468724328e-15 -8.608734750961400263e-15 1.933587708184924091e-15 0.000000000000000000e+00 0.000000000000000000e+00 0.000000000000000000e+00 0.000000000000000000e+00 1.329512727391105921e-15 9.104110654149958020e-16 0.000000000000000000e+00 2.595303199155344938e-15 1.855241000862774377e-15
